<svg width="232" height="226" viewBox="0 0 232 226" fill="none" xmlns="http://www.w3.org/2000/svg">
<rect x="32" width="200" height="200" rx="47" fill="white"/>
<rect x="190.865" y="28.3688" width="19.8582" height="143.262" rx="9.92908" fill="#003EDF"/>
<g filter="url(#filter0_dd_1_31)">
<path fill-rule="evenodd" clip-rule="evenodd" d="M150.671 139.739L156.778 152.63C158.055 155.207 158.426 158.14 157.83 160.955C157.199 163.713 155.652 166.176 153.441 167.942C151.229 169.708 148.485 170.672 145.655 170.678C143.295 170.671 140.984 169.999 138.989 168.738C136.994 167.476 135.395 165.678 134.377 163.548L128.999 152.229L128.997 152.225C128.99 152.228 128.983 152.23 128.976 152.232L124.891 143.663L128.962 152.226C123.06 154.247 116.867 155.291 110.629 155.315C104.878 155.284 99.1662 154.367 93.694 152.599L93.6823 152.595L93.6804 152.599L93.6602 152.593L88.5746 163.294C87.661 165.276 86.2545 166.991 84.4891 168.275C82.7238 169.559 80.6587 170.369 78.4912 170.627C75.8039 170.913 73.0965 170.317 70.7776 168.929C68.9004 167.831 67.3527 166.248 66.2962 164.346C65.3101 162.603 64.7588 160.648 64.6891 158.647C64.6193 156.646 65.0332 154.658 65.8956 152.85L71.7758 140.479C73.908 142.28 76.1559 143.941 78.5048 145.449C82.8869 148.259 87.5904 150.529 92.5131 152.212C87.5976 150.53 82.901 148.262 78.5248 145.456C76.1759 143.948 73.928 142.287 71.7957 140.486L71.7997 140.477C65.313 134.992 60.319 128.457 57.3939 121.521C54.8612 115.586 57.2717 108.103 63.0094 105.177C64.5664 104.369 66.2764 103.9 68.0274 103.799C69.7784 103.698 71.531 103.968 73.1706 104.591C74.8101 105.214 76.2997 106.176 77.5418 107.414C78.7839 108.652 79.7505 110.139 80.3785 111.777C81.1074 113.464 82.0459 115.053 83.1717 116.507L100.134 80.8647C101.149 78.7337 102.746 76.9337 104.742 75.6734C106.737 74.4132 109.049 73.7443 111.409 73.7443C113.769 73.7443 116.081 74.4132 118.077 75.6734C120.072 76.9337 121.67 78.7337 122.684 80.8647L139.3 115.814L139.304 115.822C143.269 111.089 146.008 105.454 147.282 99.412C147.843 96.5798 149.367 94.0289 151.595 92.1923C153.822 90.3556 156.617 89.3462 159.504 89.3354C161.559 89.3373 163.581 89.845 165.393 90.8137C167.205 91.7824 168.751 93.1823 169.893 94.8898C170.812 96.2503 171.451 97.78 171.773 99.39C172.095 101 172.093 102.658 171.767 104.267C168.998 118.177 161.206 130.62 150.671 139.739ZM104.553 129.668C104.555 129.668 104.557 129.668 104.558 129.669C106.546 130.106 108.573 130.333 110.608 130.348C113.141 130.342 115.665 130.034 118.125 129.431L118.126 129.434C118.129 129.434 118.131 129.433 118.134 129.432L112.703 118.061C112.585 117.812 112.399 117.602 112.167 117.454C111.934 117.307 111.664 117.229 111.389 117.229C111.114 117.229 110.844 117.307 110.611 117.454C110.379 117.602 110.193 117.812 110.075 118.061L104.553 129.668Z" fill="white" fill-opacity="0.91" shape-rendering="crispEdges"/>
</g>
<g clip-path="url(#clip0_1_31)">
<path d="M83.176 118.007L77.6081 129.72L71.7957 141.943C73.928 143.744 76.1758 145.405 78.5248 146.913C83.2461 149.94 88.3405 152.341 93.6803 154.056L99.2958 142.255L104.565 131.16C96.2402 129.347 87.9291 124.247 83.176 118.007Z" fill="#4320C6"/>
<path d="M150.643 141.202L139.276 117.287C137.65 119.258 135.848 121.076 133.892 122.72C132.77 123.662 131.6 124.546 130.388 125.368C126.66 127.93 122.501 129.802 118.111 130.895L128.976 153.689C134.398 151.843 139.548 149.276 144.287 146.057C146.502 144.568 148.624 142.947 150.643 141.202V141.202Z" fill="#26069C"/>
<path d="M78.5048 146.906C76.1559 145.398 73.908 143.737 71.7758 141.936L65.8956 154.307C65.0332 156.115 64.6193 158.103 64.689 160.104C64.7588 162.105 65.3101 164.06 66.2961 165.803C67.3527 167.705 68.9004 169.287 70.7776 170.386C73.0965 171.774 75.8039 172.37 78.4912 172.084C80.6587 171.826 82.7238 171.016 84.4891 169.732C86.2545 168.448 87.661 166.733 88.5746 164.751L93.6604 154.049C88.3206 152.334 83.2261 149.933 78.5048 146.906V146.906Z" fill="#F25E6B" fill-opacity="0.9"/>
<path d="M169.893 96.3468C168.751 94.6393 167.205 93.2393 165.393 92.2706C163.581 91.302 161.559 90.7943 159.504 90.7924C156.617 90.8032 153.822 91.8126 151.595 93.6492C149.367 95.4859 147.843 98.0368 147.282 100.869C146.008 106.914 143.265 112.553 139.297 117.288L150.664 141.202C161.202 132.083 168.997 119.637 171.767 105.724C172.093 104.115 172.095 102.457 171.773 100.847C171.451 99.237 170.812 97.7073 169.893 96.3468Z" fill="#BD4D4D"/>
<g filter="url(#filter1_b_1_31)">
<path d="M118.125 130.888C115.665 131.491 113.141 131.799 110.608 131.805C108.573 131.79 106.546 131.563 104.558 131.126C96.2539 129.326 87.9427 124.227 83.1896 117.987C82.0558 116.527 81.1113 114.93 80.3785 113.234C79.7505 111.596 78.7839 110.109 77.5418 108.871C76.2997 107.633 74.8101 106.671 73.1705 106.048C71.531 105.425 69.7784 105.155 68.0274 105.256C66.2763 105.357 64.5664 105.826 63.0094 106.634C57.2717 109.56 54.8612 117.043 57.3939 122.977C60.3204 129.917 65.318 136.456 71.8094 141.942C73.9416 143.744 76.1895 145.404 78.5384 146.913C83.2597 149.94 88.3542 152.341 93.694 154.056C99.1661 155.824 104.878 156.741 110.629 156.772C116.867 156.748 123.06 155.704 128.962 153.683L118.125 130.888Z" fill="#BD4D4D"/>
</g>
<g filter="url(#filter2_b_1_31)">
<path d="M156.778 154.087L150.667 141.185L139.3 117.271L122.684 82.3217C121.67 80.1906 120.072 78.3906 118.077 77.1304C116.081 75.8701 113.769 75.2012 111.409 75.2012C109.049 75.2012 106.737 75.8701 104.742 77.1304C102.746 78.3906 101.149 80.1906 100.134 82.3217L83.1589 117.99C87.912 124.23 96.2435 129.357 104.548 131.136L110.075 119.518C110.193 119.269 110.379 119.059 110.611 118.911C110.844 118.764 111.114 118.686 111.389 118.686C111.664 118.686 111.934 118.764 112.167 118.911C112.399 119.059 112.585 119.269 112.703 119.518L118.135 130.892L128.999 153.686L134.377 165.005C135.395 167.135 136.994 168.933 138.989 170.194C140.984 171.456 143.295 172.128 145.655 172.135C148.485 172.129 151.229 171.165 153.441 169.399C155.652 167.633 157.199 165.17 157.83 162.411C158.426 159.597 158.055 156.664 156.778 154.087V154.087Z" fill="#F25E6B" fill-opacity="0.9"/>
</g>
</g>
<defs>
<filter id="filter0_dd_1_31" x="0.655548" y="18.0082" width="227.093" height="227.004" filterUnits="userSpaceOnUse" color-interpolation-filters="sRGB">
<feFlood flood-opacity="0" result="BackgroundImageFix"/>
<feColorMatrix in="SourceAlpha" type="matrix" values="0 0 0 0 0 0 0 0 0 0 0 0 0 0 0 0 0 0 127 0" result="hardAlpha"/>
<feOffset dy="32.5127"/>
<feGaussianBlur stdDeviation="20.901"/>
<feComposite in2="hardAlpha" operator="out"/>
<feColorMatrix type="matrix" values="0 0 0 0 0 0 0 0 0 0 0 0 0 0 0 0 0 0 0.09 0"/>
<feBlend mode="normal" in2="BackgroundImageFix" result="effect1_dropShadow_1_31"/>
<feColorMatrix in="SourceAlpha" type="matrix" values="0 0 0 0 0 0 0 0 0 0 0 0 0 0 0 0 0 0 127 0" result="hardAlpha"/>
<feOffset/>
<feGaussianBlur stdDeviation="27.868"/>
<feComposite in2="hardAlpha" operator="out"/>
<feColorMatrix type="matrix" values="0 0 0 0 0 0 0 0 0 0 0 0 0 0 0 0 0 0 0.11 0"/>
<feBlend mode="normal" in2="effect1_dropShadow_1_31" result="effect2_dropShadow_1_31"/>
<feBlend mode="normal" in="SourceGraphic" in2="effect2_dropShadow_1_31" result="shape"/>
</filter>
<filter id="filter1_b_1_31" x="37.8129" y="86.6564" width="109.728" height="88.6943" filterUnits="userSpaceOnUse" color-interpolation-filters="sRGB">
<feFlood flood-opacity="0" result="BackgroundImageFix"/>
<feGaussianBlur in="BackgroundImageFix" stdDeviation="9.28935"/>
<feComposite in2="SourceAlpha" operator="in" result="effect1_backgroundBlur_1_31"/>
<feBlend mode="normal" in="SourceGraphic" in2="effect1_backgroundBlur_1_31" result="shape"/>
</filter>
<filter id="filter2_b_1_31" x="64.5802" y="56.6225" width="112.106" height="134.091" filterUnits="userSpaceOnUse" color-interpolation-filters="sRGB">
<feFlood flood-opacity="0" result="BackgroundImageFix"/>
<feGaussianBlur in="BackgroundImageFix" stdDeviation="9.28935"/>
<feComposite in2="SourceAlpha" operator="in" result="effect1_backgroundBlur_1_31"/>
<feBlend mode="normal" in="SourceGraphic" in2="effect1_backgroundBlur_1_31" result="shape"/>
</filter>
<clipPath id="clip0_1_31">
<rect width="115.629" height="96.9361" fill="white" transform="translate(56.3688 75.2158)"/>
</clipPath>
</defs>
</svg>
